<svg width="40" height="40" viewBox="0 0 40 40" fill="none" xmlns="http://www.w3.org/2000/svg">
<g clip-path="url(#clip0)">
<path d="M35.2692 14.1342C34.6165 5.70105 27.251 -0.606272 18.8178 0.0464163C11.2918 0.628861 5.31252 6.60822 4.73008 14.1342C3.60427 14.3819 2.57211 14.9448 1.75436 15.7574C-0.586508 18.1025 -0.583008 21.901 1.76202 24.2419C2.64994 25.1281 3.79333 25.7138 5.03138 25.9165C5.12421 25.968 5.22795 25.9966 5.33402 25.9998C5.37627 25.9987 5.41843 25.9942 5.46001 25.9865C5.47751 25.9823 5.49459 25.977 5.51134 25.9705C5.67332 25.9831 5.83397 25.9998 6.00063 25.9998H7.33383C7.70197 25.9998 8.00044 25.7013 8.00044 25.3332V14.6675C8.00044 14.2994 7.70197 14.0009 7.33383 14.0009H6.07995C6.80047 6.31291 13.6168 0.664691 21.3049 1.38512C27.9955 2.01215 33.2936 7.31031 33.9207 14.0009H32.6648C32.2967 14.0009 31.9982 14.2994 31.9982 14.6675V25.3332C31.9982 25.7013 32.2967 25.9998 32.6648 25.9998H33.998V27.333C33.998 32.4752 29.9784 36.3835 24.5629 36.6408C24.1777 35.2225 22.7156 34.385 21.2974 34.7703C19.8791 35.1555 19.0416 36.6176 19.4269 38.0358C19.8121 39.4541 21.2741 40.2916 22.6924 39.9063C23.6256 39.6529 24.3479 38.913 24.5789 37.974C30.7463 37.7054 35.3312 33.2285 35.3312 27.333V25.8472C36.4321 25.5928 37.4407 25.0376 38.2443 24.2433C39.3692 23.1181 39.9999 21.5914 39.9974 20.0004C39.9988 17.1757 38.0297 14.7327 35.2692 14.1342ZM6.66723 15.3341V24.6665H6.00063C5.80523 24.6665 5.61 24.6549 5.41601 24.6318C2.85784 24.3205 1.03634 21.9943 1.34764 19.4361C1.60754 17.3005 3.29371 15.6194 5.43001 15.3661C5.61941 15.344 5.80998 15.3332 6.00063 15.3341H6.66723ZM21.9991 38.6652C21.2628 38.6652 20.6659 38.0683 20.6659 37.332C20.6659 36.5956 21.2628 35.9988 21.9991 35.9988C22.7355 35.9988 23.3323 36.5956 23.3323 37.332C23.3323 38.0683 22.7354 38.6652 21.9991 38.6652ZM34.5846 24.6312C34.39 24.6548 34.1941 24.6665 33.998 24.6665H33.3314V15.3341H33.998C36.5751 15.3266 38.6703 17.4095 38.6779 19.9866C38.6847 22.3474 36.9275 24.3414 34.5846 24.6312Z" fill="white"/>
</g>
<defs>
<clipPath id="clip0">
<rect width="40" height="40" fill="white"/>
</clipPath>
</defs>
</svg>
