<svg width="400" height="400" viewBox="0 0 400 400" fill="none" xmlns="http://www.w3.org/2000/svg">
<path d="M381.25 275.312V275C381.246 231.259 365.428 188.995 336.713 155.999C307.998 123.004 268.322 101.503 225 95.4609V90.625C224.994 84.8254 222.687 79.2651 218.586 75.1641C214.485 71.0632 208.925 68.7564 203.125 68.75H196.875C191.075 68.7564 185.515 71.0632 181.414 75.1641C177.313 79.2651 175.007 84.8254 175 90.625V95.4609C131.679 101.503 92.0024 123.004 63.2871 155.999C34.5718 188.995 18.754 231.259 18.7501 275V275.312C14.9528 276.084 11.5774 278.238 9.27922 281.358C6.98106 284.478 5.9241 288.34 6.31352 292.195C6.70293 296.051 8.51095 299.624 11.3866 302.221C14.2622 304.818 18.0003 306.254 21.8751 306.25H43.7501V309.375C43.7565 315.175 46.0633 320.735 50.1642 324.836C54.2652 328.937 59.8255 331.244 65.6251 331.25H334.375C340.175 331.244 345.735 328.937 349.836 324.836C353.937 320.735 356.244 315.175 356.25 309.375V306.25H378.125C382 306.254 385.738 304.818 388.614 302.221C391.489 299.624 393.297 296.051 393.687 292.195C394.076 288.34 393.019 284.478 390.721 281.358C388.423 278.238 385.047 276.084 381.25 275.312ZM187.5 90.625C187.502 88.1392 188.491 85.7559 190.248 83.9982C192.006 82.2405 194.389 81.2521 196.875 81.25H203.125C205.611 81.2521 207.994 82.2405 209.752 83.9982C211.51 85.7559 212.498 88.1392 212.5 90.625V93.75H187.5V90.625ZM80.6798 155.68C104.28 132.081 134.348 116.011 167.081 109.5C199.814 102.989 233.743 106.331 264.577 119.103C295.411 131.874 321.765 153.502 340.308 181.252C358.851 209.001 368.749 241.626 368.75 275H31.2501C31.1889 252.831 35.5263 230.869 44.011 210.388C52.4957 189.906 64.9592 171.311 80.6798 155.68ZM343.75 309.375C343.748 311.861 342.76 314.244 341.002 316.002C339.244 317.76 336.861 318.748 334.375 318.75H65.6251C63.1393 318.748 60.756 317.76 58.9983 316.002C57.2406 314.244 56.2522 311.861 56.2501 309.375V306.25H343.75V309.375ZM378.125 293.75H21.8751C21.0463 293.75 20.2515 293.421 19.6654 292.835C19.0794 292.249 18.7501 291.454 18.7501 290.625C18.7501 289.796 19.0794 289.001 19.6654 288.415C20.2515 287.829 21.0463 287.5 21.8751 287.5H378.125C378.954 287.5 379.749 287.829 380.335 288.415C380.921 289.001 381.25 289.796 381.25 290.625C381.25 291.454 380.921 292.249 380.335 292.835C379.749 293.421 378.954 293.75 378.125 293.75Z" fill="#EB8A8D" fill-opacity="0.05"/>
<path d="M168.75 250H56.25C54.5924 250 53.0027 250.658 51.8306 251.831C50.6585 253.003 50 254.592 50 256.25C50 257.908 50.6585 259.497 51.8306 260.669C53.0027 261.842 54.5924 262.5 56.25 262.5H168.75C170.408 262.5 171.997 261.842 173.169 260.669C174.342 259.497 175 257.908 175 256.25C175 254.592 174.342 253.003 173.169 251.831C171.997 250.658 170.408 250 168.75 250Z" fill="#EB8A8D" fill-opacity="0.05"/>
<path d="M193.75 250H187.5C185.842 250 184.253 250.658 183.081 251.831C181.908 253.003 181.25 254.592 181.25 256.25C181.25 257.908 181.908 259.497 183.081 260.669C184.253 261.842 185.842 262.5 187.5 262.5H193.75C195.408 262.5 196.997 261.842 198.169 260.669C199.342 259.497 200 257.908 200 256.25C200 254.592 199.342 253.003 198.169 251.831C196.997 250.658 195.408 250 193.75 250Z" fill="#EB8A8D" fill-opacity="0.05"/>
</svg>
