<svg width="25" height="25" viewBox="0 0 25 25" fill="none" xmlns="http://www.w3.org/2000/svg">
<g clip-path="url(#clip0)">
<path d="M21.3388 19.9578L13.8811 12.5L21.3388 5.04223C21.7202 4.66085 21.7202 4.04254 21.3388 3.66116C20.9575 3.27978 20.3392 3.27978 19.9578 3.66116L12.5 11.1189L5.04223 3.66116C4.66085 3.27978 4.04255 3.27978 3.66116 3.66116C3.27978 4.04254 3.27978 4.66085 3.66116 5.04223L11.1189 12.5L3.66116 19.9578C3.27978 20.3391 3.27978 20.9574 3.66116 21.3388C4.04255 21.7202 4.66085 21.7202 5.04223 21.3388L12.5 13.8811L19.9578 21.3388C20.3392 21.7202 20.9575 21.7202 21.3388 21.3388C21.7202 20.9574 21.7202 20.3391 21.3388 19.9578Z" fill="#E51D24"/>
</g>
<defs>
<clipPath id="clip0">
<rect width="25" height="25" fill="white"/>
</clipPath>
</defs>
</svg>
