<svg width="103" height="36" viewBox="0 0 103 36" fill="none" xmlns="http://www.w3.org/2000/svg">
<path d="M11.3024 -7.34329e-05L7.82934 5.51634L4.35313 -7.34329e-05H0V13.3619H4.88745V7.99637L6.55012 10.6524H9.10542L10.7681 8.03724V13.3619H15.6555V-7.34329e-05H11.3024ZM22.0485 13.3619L22.4885 11.8343H26.3828L26.8197 13.3619H31.9554L27.1654 -7.34329e-05H21.7059L16.9159 13.3619H22.0485ZM24.0349 6.33673C24.2046 5.70808 24.3587 5.00085 24.4341 4.33134C24.5127 5.00085 24.6635 5.70808 24.8364 6.33673L25.4084 8.39871H23.444L24.0349 6.33673ZM35.7742 -7.34329e-05C35.5856 3.05517 35.8119 7.4243 34.3819 8.72247C33.9795 9.08708 33.3886 9.18138 32.7192 8.97078V13.3619C33.3698 13.5725 34.1336 13.6668 35.0105 13.6668C39.2284 13.6668 40.1085 8.68475 40.3945 4.38791H41.4631V13.3619H46.5392V-7.34329e-05H35.7742ZM48.7173 -7.34329e-05V13.3619H59.3314V9.50514H53.7965V8.36099H58.4513V4.96313H53.7965V3.81584H59.2183V-7.34329e-05H48.7173ZM61.2392 -7.34329e-05V13.3619H68.2828C71.3001 13.3619 73.7423 12.5227 73.7423 9.48942C73.7423 7.90208 73.0351 6.75793 71.3567 6.24244C72.8088 5.64836 73.208 4.67709 73.208 3.37893C73.208 1.03092 71.5107 -7.34329e-05 68.4368 -7.34329e-05H61.2392ZM68.6631 8.87648C68.6631 9.3134 68.4368 9.73459 67.7862 9.73459H66.3184V8.01838H67.7862C68.4368 8.01838 68.6631 8.43957 68.6631 8.87648ZM68.4148 4.38791C68.4148 4.77139 68.1885 5.19259 67.5788 5.19259H66.3184V3.58953H67.5788C68.1885 3.58953 68.4148 4.00758 68.4148 4.38791ZM88.2695 13.3619V-7.34329e-05H84.2432L80.2736 5.19259C80.4056 4.2559 80.4056 3.57067 80.4056 2.86343V-7.34329e-05H75.3295V13.3619H79.3558L83.3286 8.16925C83.1935 9.10594 83.1935 9.79117 83.1935 10.4984V13.3619H88.2695ZM102.451 13.3619V-7.34329e-05H97.3749V5.17373C97.1266 5.28689 96.7463 5.38118 96.3629 5.38118C95.772 5.38118 95.1999 5.17373 95.1999 4.44764V-7.34329e-05H90.1239V5.23031C90.1239 8.26355 92.1637 9.73459 94.9516 9.73459C95.8694 9.73459 96.7054 9.60258 97.3749 9.36998V13.3619H102.451Z" fill="white"/>
<path d="M25.6885 35.5474V29.3426H24.3685V33.2402L21.4926 29.3426H20.1348V35.5474H21.4548V31.502L24.4156 35.5474H25.6885ZM29.3093 29.3426H27.9892V35.5474H29.3093V29.3426ZM34.6117 35.67C35.7369 35.67 36.6232 35.2048 37.255 34.4975V32.1149H34.2973V33.2685H35.9317V34.0135C35.6834 34.2429 35.1617 34.4881 34.6117 34.4881C33.4864 34.4881 32.6692 33.6206 32.6692 32.4513C32.6692 31.2788 33.4864 30.4113 34.6117 30.4113C35.2717 30.4113 35.8029 30.7853 36.0826 31.2223L37.1795 30.625C36.7144 29.8927 35.9034 29.242 34.6117 29.242C32.7981 29.242 31.3115 30.4867 31.3115 32.4513C31.3115 34.4032 32.7981 35.67 34.6117 35.67ZM44.9554 35.5474V29.3426H43.6291V31.7786H40.6966V29.3426H39.3765V35.5474H40.6966V32.9416H43.6291V35.5474H44.9554ZM50.0095 35.5474V30.5056H51.8136V29.3426H46.8664V30.5056H48.6799V35.5474H50.0095ZM59.118 35.6574C60.4852 35.6574 61.2679 34.9062 61.711 34.1329L60.5764 33.5829C60.3155 34.0952 59.7592 34.4881 59.118 34.4881C57.9928 34.4881 57.1725 33.6206 57.1725 32.4513C57.1725 31.2788 57.9928 30.4113 59.118 30.4113C59.7592 30.4113 60.3155 30.8136 60.5764 31.3134L61.711 30.7571C61.2773 29.9838 60.4852 29.242 59.118 29.242C57.2573 29.242 55.8147 30.5433 55.8147 32.4513C55.8147 34.3561 57.2573 35.6574 59.118 35.6574ZM67.5194 35.5474V34.3844H64.8949V29.3426H63.5749V35.5474H67.5194ZM72.0862 35.6574C73.9752 35.6574 74.8867 34.6076 74.8867 33.0642V29.3426H73.5383V33.0265C73.5383 33.8909 73.0449 34.4881 72.0862 34.4881C71.1307 34.4881 70.6247 33.8909 70.6247 33.0265V29.3426H69.2889V33.0736C69.2889 34.5981 70.2004 35.6574 72.0862 35.6574ZM80.5442 35.5474C81.726 35.5474 82.3483 34.8024 82.3483 33.872C82.3483 33.0925 81.8203 32.4513 81.1571 32.3475C81.7417 32.225 82.2289 31.7032 82.2289 30.9236C82.2289 30.097 81.6222 29.3426 80.4405 29.3426H77.1748V35.5474H80.5442ZM80.1544 31.8258H78.4981V30.4773H80.1544C80.6008 30.4773 80.8773 30.7665 80.8773 31.1563C80.8773 31.5492 80.6008 31.8258 80.1544 31.8258ZM80.1984 34.4032H78.4981V32.9605H80.1984C80.7202 32.9605 80.9999 33.2968 80.9999 33.6866C80.9999 34.1329 80.7013 34.4032 80.1984 34.4032Z" fill="#E51D24"/>
<path d="M10.4311 25.6843C11.8014 25.6843 12.5809 24.9299 13.0272 24.1598L11.8926 23.6097C11.6317 24.1221 11.0754 24.5119 10.4311 24.5119C9.30586 24.5119 8.48866 23.6475 8.48866 22.475C8.48866 21.3026 9.30586 20.4382 10.4311 20.4382C11.0754 20.4382 11.6317 20.8374 11.8926 21.3403L13.0272 20.7808C12.5904 20.0107 11.8014 19.2658 10.4311 19.2658C8.57038 19.2658 7.13086 20.5671 7.13086 22.475C7.13086 24.3798 8.57038 25.6843 10.4311 25.6843ZM17.8298 25.6843C19.7062 25.6843 21.0735 24.3453 21.0735 22.475C21.0735 20.6048 19.7062 19.2658 17.8298 19.2658C15.9597 19.2658 14.5925 20.6048 14.5925 22.475C14.5925 24.3453 15.9597 25.6843 17.8298 25.6843ZM17.8298 24.5119C16.6858 24.5119 15.9503 23.6286 15.9503 22.475C15.9503 21.312 16.6858 20.4382 17.8298 20.4382C18.9708 20.4382 19.7157 21.312 19.7157 22.475C19.7157 23.6286 18.9708 24.5119 17.8298 24.5119ZM28.6294 25.5711V19.3663H27.3093V23.264L24.4334 19.3663H23.0756V25.5711H24.3957V21.5258L27.3533 25.5711H28.6294ZM33.9317 25.6843C35.3021 25.6843 36.0816 24.9299 36.5279 24.1598L35.3932 23.6097C35.1324 24.1221 34.5761 24.5119 33.9317 24.5119C32.8065 24.5119 31.9893 23.6475 31.9893 22.475C31.9893 21.3026 32.8065 20.4382 33.9317 20.4382C34.5761 20.4382 35.1324 20.8374 35.3932 21.3403L36.5279 20.7808C36.091 20.0107 35.3021 19.2658 33.9317 19.2658C32.0742 19.2658 30.6315 20.5671 30.6315 22.475C30.6315 24.3798 32.0742 25.6843 33.9317 25.6843ZM42.7794 25.5711V24.4081H39.7087V23.0031H42.7134V21.8401H39.7087V20.5293H42.7794V19.3663H38.3917V25.5711H42.7794ZM49.9079 25.5711L48.5124 23.2106C49.1818 23.0502 49.8702 22.4656 49.8702 21.3686C49.8702 20.215 49.0781 19.3663 47.7863 19.3663H44.8821V25.5711H46.2054V23.3677H47.1703L48.3898 25.5711H49.9079ZM47.5915 22.2047H46.2054V20.5293H47.5915C48.1226 20.5293 48.5218 20.8468 48.5218 21.3686C48.5218 21.8872 48.1226 22.2047 47.5915 22.2047ZM54.6068 25.5711V20.5293H56.4109V19.3663H51.4637V20.5293H53.2741V25.5711H54.6068ZM66.4938 25.5711L64.1051 19.3663H62.4487L60.0474 25.5711H61.5561L61.949 24.5213H64.6048L64.9883 25.5711H66.4938ZM64.2434 23.3583H62.3104L63.2753 20.6897L64.2434 23.3583ZM73.1665 25.5711L71.771 23.2106C72.4405 23.0502 73.1288 22.4656 73.1288 21.3686C73.1288 20.215 72.3368 19.3663 71.045 19.3663H68.1408V25.5711H69.464V23.3677H70.4321L71.6516 25.5711H73.1665ZM70.8501 22.2047H69.464V20.5293H70.8501C71.3813 20.5293 71.7804 20.8468 71.7804 21.3686C71.7804 21.8872 71.3813 22.2047 70.8501 22.2047ZM79.5847 25.5711V24.4081H76.5139V23.0031H79.5187V21.8401H76.5139V20.5293H79.5847V19.3663H75.1938V25.5711H79.5847ZM87.2411 25.5711V19.3663H85.9242V23.264L83.0483 19.3663H81.6905V25.5711H83.0106V21.5258L85.9682 25.5711H87.2411ZM95.3282 25.5711L92.9364 19.3663H91.2831L88.8818 25.5711H90.3873L90.7771 24.5213H93.4393L93.8196 25.5711H95.3282ZM93.0778 23.3583H91.1417L92.1066 20.6897L93.0778 23.3583Z" fill="#E51D24"/>
</svg>
