<svg width="400" height="400" viewBox="0 0 400 400" fill="none" xmlns="http://www.w3.org/2000/svg">
<g clip-path="url(#clip0)">
<path d="M397.075 70.401C403.238 51.0432 399.592 32.7119 386.809 18.7854C373.107 3.85645 350.548 -3.1498 330.674 1.34786C311.993 5.57677 298.402 18.6854 292.403 38.2627L290.093 45.8104C243.894 80.0463 212.06 87.3744 186.414 93.2635C163.618 98.4979 143.93 103.019 123.557 123.523C103.032 143.918 98.5097 163.602 93.2745 186.394C87.3816 212.046 80.048 243.892 45.7894 290.101L38.262 292.404C18.6917 298.393 5.58312 311.978 1.35031 330.653C-3.15438 350.531 3.85187 373.096 18.7847 386.805C28.2894 395.53 39.8441 400 52.3769 400C58.2097 400 64.2542 399.032 70.4026 397.074L132.477 377.299C132.51 377.288 132.54 377.274 132.572 377.263C152.658 385.984 176.006 390.481 201.677 390.481C211.471 390.481 221.607 389.828 232.022 388.506C277.25 382.768 323.214 364.384 343.798 343.799C364.392 323.204 382.783 277.236 388.521 232.012C393.307 194.296 389.328 160.303 377.271 132.547C377.279 132.523 377.289 132.501 377.297 132.477L397.075 70.401ZM108.503 189.892C113.58 167.788 117.249 151.818 134.606 134.571C151.83 117.236 167.803 113.568 189.912 108.492C216.366 102.417 249.05 94.9119 296.07 60.815L327.047 91.7932C270.917 114.796 222.901 145.91 184.191 184.388C145.158 223.186 114.011 271.028 91.4972 326.731L60.8152 296.049C94.9175 249.033 102.425 216.347 108.503 189.892ZM65.6612 382.186C47.9855 387.815 36.1597 381.545 29.3519 375.295C18.4112 365.251 13.2823 348.699 16.5894 334.106C18.6698 324.925 24.912 312.829 42.8347 307.345L48.3323 305.663L94.0652 351.396C99.9003 357.231 106.36 362.428 113.372 366.987L65.6612 382.186ZM373.021 230.046C367.065 276.99 348.254 317.246 332.75 332.75C317.255 348.246 277.005 367.049 230.056 373.005C228.097 373.253 226.026 373.488 223.864 373.703C262.201 312.294 311.414 263.235 373.671 224.362C373.469 226.342 373.25 228.24 373.021 230.046ZM374.794 205.385C339.244 226.606 307.035 251.471 279.026 279.359C250.845 307.418 225.937 339.513 204.92 374.786C189.074 375.009 170.82 373.503 152.923 368.126C171.489 331.195 193.765 297.564 219.221 268.06C222.04 264.792 221.677 259.86 218.41 257.041C215.143 254.222 210.21 254.586 207.391 257.853C180.728 288.754 157.466 324.004 138.164 362.71C126.349 357.514 115.046 350.28 105.113 340.346L103.538 338.771C147.294 225.977 224.411 149.042 339.06 103.805L340.346 105.091C350.367 115.113 357.641 126.524 362.849 138.451C324.005 158.006 288.752 181.226 257.988 207.547C254.709 210.353 254.325 215.284 257.13 218.563C258.675 220.369 260.866 221.296 263.07 221.296C264.867 221.296 266.672 220.68 268.145 219.421C297.521 194.286 331.16 172.048 368.232 153.233C373.588 171.208 375.051 189.524 374.794 205.385ZM366.994 113.345C362.434 106.332 357.23 99.8775 351.395 94.0424L346.615 89.2627C346.607 89.2549 346.6 89.2471 346.592 89.2393L305.667 48.315L307.343 42.8377C312.837 24.9088 324.939 18.6674 334.125 16.5877C348.71 13.2846 365.26 18.4143 375.298 29.351C381.546 36.1588 387.814 47.9846 382.186 65.6596L366.994 113.345Z" fill="#EB8A8D" fill-opacity="0.05"/>
<path d="M231.675 231.813C228.65 234.89 228.693 239.836 231.769 242.862C233.29 244.357 235.268 245.103 237.246 245.103C239.267 245.103 241.288 244.323 242.818 242.767L242.84 242.745C245.865 239.668 245.811 234.733 242.734 231.708C239.657 228.683 234.7 228.737 231.675 231.813Z" fill="#EB8A8D" fill-opacity="0.05"/>
</g>
<defs>
<clipPath id="clip0">
<rect width="400" height="400" fill="white"/>
</clipPath>
</defs>
</svg>
