<svg width="25" height="25" viewBox="0 0 25 25" fill="none" xmlns="http://www.w3.org/2000/svg">
<path d="M24.5117 1.49414H17.0898C16.8201 1.49414 16.6015 1.71275 16.6015 1.98242V3.9357C16.6015 4.20538 16.8201 4.42399 17.0898 4.42399H18.0664V8.07605H8.78905C8.51942 8.07605 8.30077 8.29466 8.30077 8.56433V10.5176C8.30077 10.7872 8.51942 11.0058 8.78905 11.0058H9.76566V14.658H0.488283C0.218604 14.658 0 14.8766 0 15.1463V17.0995C0 17.3692 0.218604 17.5878 0.488283 17.5878H1.17168V23.0178C1.17168 23.2874 1.39029 23.506 1.65997 23.506H10.535C10.6452 23.506 10.752 23.4688 10.8384 23.4003L24.8151 12.3177C24.9319 12.2251 25 12.0842 25 11.9351V3.9357V1.98242C25 1.71275 24.7814 1.49414 24.5117 1.49414ZM9.27733 10.0293V9.05262H18.0664V10.0293H9.27733ZM0.976566 16.6112V15.6346H9.76566V16.6112H0.976566ZM24.0234 5.3653H22.0198C21.7501 5.3653 21.5315 5.5839 21.5315 5.85358C21.5315 6.12326 21.7501 6.34187 22.0198 6.34187H24.0234V11.6991L10.3648 22.5295H2.14825V19.4898H4.15197C4.4216 19.4898 4.64025 19.2712 4.64025 19.0015C4.64025 18.7318 4.4216 18.5132 4.15197 18.5132H2.14825V17.5878H10.2539C10.5236 17.5878 10.7422 17.3692 10.7422 17.0995V15.1463V11.0058H18.5547C18.8244 11.0058 19.043 10.7872 19.043 10.5176V8.56433V4.42399H24.0234V5.3653ZM24.0234 3.44742H17.5781V2.47071H24.0234V3.44742Z" fill="#979797"/>
<path d="M5.56621 18.5129H5.55469C5.28496 18.5129 5.06641 18.7315 5.06641 19.0012C5.06641 19.2709 5.28496 19.4895 5.55469 19.4895H5.56621C5.83584 19.4895 6.0545 19.2709 6.0545 19.0012C6.0545 18.7315 5.83584 18.5129 5.56621 18.5129Z" fill="#979797"/>
<path d="M20.6055 6.3418H20.6169C20.8866 6.3418 21.1052 6.12319 21.1052 5.85351C21.1052 5.58384 20.8866 5.36523 20.6169 5.36523H20.6055C20.3358 5.36523 20.1172 5.58384 20.1172 5.85351C20.1172 6.12319 20.3358 6.3418 20.6055 6.3418Z" fill="#979797"/>
</svg>
