<svg width="40" height="40" viewBox="0 0 40 40" fill="none" xmlns="http://www.w3.org/2000/svg">
<path d="M38.6196 20.0001C38.1577 13.5545 34.3923 7.8072 28.6673 4.80981V1.99998C28.6661 0.895931 27.7714 0.00117187 26.6673 0H10.6674C9.56339 0.00117187 8.66863 0.895931 8.66746 1.99998V6.51565C2.30758 11.3726 -0.246615 19.7445 2.31899 27.3244C4.88452 34.9043 11.9984 40.0039 20.0007 39.9997H20.0853L20.0874 40L20.0893 39.9997H20.0906C23.9605 39.9914 27.7304 38.7701 30.8699 36.5075C30.8927 36.4913 30.9145 36.4735 30.9349 36.4542C36.174 32.6711 39.0814 26.4457 38.6196 20.0001ZM3.62023 27.0086C1.30072 20.3073 3.30039 12.8689 8.66746 8.23392V28.6664C8.66863 29.7705 9.56339 30.6652 10.6674 30.6664H18.9804C18.5496 33.316 18.6221 36.0231 19.1938 38.6459C12.1098 38.3206 5.93974 33.71 3.62023 27.0086ZM19.3607 25.9998H18.0007V24.6664C18.0008 24.4897 17.9306 24.32 17.8055 24.195C17.6805 24.07 17.5109 23.9997 17.334 23.9997C17.1572 23.9997 16.9876 24.0699 16.8625 24.195C16.7375 24.32 16.6673 24.4896 16.6673 24.6664V25.9998H15.334V25.3332C15.334 24.965 15.0355 24.6665 14.6673 24.6665C14.2991 24.6665 14.0007 24.965 14.0007 25.3332V25.9998H12.6673V22.6665H19.3607V25.9998H19.3607ZM19.3607 21.3332H12.6674C11.9314 21.3341 11.3349 21.9305 11.3341 22.6665V25.9998C11.3349 26.7358 11.9314 27.3323 12.6674 27.3331H19.3607V28.5874C19.3317 28.7106 19.2732 28.9738 19.204 29.3331H10.6674C10.2994 29.3327 10.0011 29.0345 10.0008 28.6665V1.99998C10.0012 1.63194 10.2994 1.33366 10.6674 1.33335H26.6673C27.0354 1.33374 27.3336 1.63194 27.3339 1.99998V28.1713C27.279 28.6727 26.9381 29.0966 26.4603 29.2579C26.4273 29.2654 26.3949 29.2752 26.3633 29.2872C26.3548 29.2902 26.2851 29.3028 26.2767 29.3061C26.1884 29.3238 26.0986 29.3328 26.0085 29.3331C25.6618 29.3269 25.3309 29.1866 25.0853 28.9419C24.8342 28.6928 24.6933 28.3535 24.694 27.9999V21.3333C24.694 19.8605 23.5001 18.6667 22.0273 18.6667C20.5546 18.6667 19.3607 19.8604 19.3607 21.3332ZM29.9086 35.549C27.166 37.4702 23.921 38.5466 20.5739 38.6454C19.6909 35.5777 20.087 32.0187 20.4181 30.111C20.5509 29.3242 20.6733 28.8331 20.6739 28.8281C20.6874 28.7752 20.6942 28.7209 20.6941 28.6663V21.333C20.6941 20.5966 21.291 19.9997 22.0274 19.9997C22.7638 19.9997 23.3608 20.5966 23.3608 21.333V21.9997V27.9996C23.3591 28.7072 23.6407 29.386 24.1426 29.8847C24.6374 30.376 25.3035 30.6562 26.0008 30.6662C26.1644 30.6677 26.3278 30.6527 26.4884 30.6213C26.5896 30.6088 26.6891 30.5856 26.7853 30.552C26.7944 30.5498 26.8035 30.5475 26.8126 30.5445C27.936 30.2091 28.7028 29.172 28.6941 27.9996V19.5773C29.8959 21.5542 31.612 24.7798 31.9727 27.5841C32.041 28.1723 31.9616 28.7683 31.7416 29.3181L29.9086 35.549ZM31.727 34.088L33.0026 29.7462C33.2914 29.0052 33.3921 28.2042 33.2955 27.4148C32.7313 23.0326 29.2997 17.983 28.6673 17.0831V6.32511C34.0447 9.40547 37.3539 15.1361 37.3339 21.3331C37.3275 26.1811 35.2946 30.8056 31.727 34.088Z" fill="#E51D24"/>
<path d="M18.668 2.6665C17.5634 2.6665 16.668 3.56189 16.668 4.66649C16.6691 5.77054 17.5639 6.6653 18.668 6.66647C19.7725 6.66647 20.6679 5.77109 20.6679 4.66649C20.6679 3.56189 19.7725 2.6665 18.668 2.6665ZM18.668 5.3332C18.2998 5.3332 18.0013 5.03476 18.0013 4.66656C18.0017 4.29852 18.2999 4.00024 18.668 3.99993C19.0362 3.99993 19.3346 4.29836 19.3346 4.66656C19.3346 5.03476 19.0362 5.3332 18.668 5.3332Z" fill="#E51D24"/>
<path d="M16.5577 10.0053C16.3218 10.045 16.1253 10.2081 16.0428 10.4325L14.6672 14.1011L13.2915 10.4325C13.209 10.2081 13.0125 10.045 12.7766 10.0053C12.5408 9.9655 12.3017 10.0551 12.1501 10.2401C11.9985 10.4251 11.9576 10.6771 12.0429 10.9006L14.0429 16.2339C14.1405 16.4941 14.3893 16.6665 14.6672 16.6665C14.945 16.6665 15.1939 16.4941 15.2915 16.2339L17.2914 10.9006C17.3767 10.6771 17.3359 10.4251 17.1842 10.2401C17.0326 10.0552 16.7935 9.9655 16.5577 10.0053Z" fill="#E51D24"/>
<path d="M19.3337 9.99988C19.1569 9.9998 18.9873 10.07 18.8622 10.1951C18.7372 10.3201 18.667 10.4897 18.667 10.6666V15.9998C18.667 16.368 18.9654 16.6665 19.3336 16.6665C19.7018 16.6665 20.0003 16.368 20.0003 15.9998V10.6665C20.0004 10.4897 19.9301 10.3201 19.805 10.195C19.6801 10.07 19.5106 9.9998 19.3337 9.99988Z" fill="#E51D24"/>
<path d="M22.0007 16.6665C22.1775 16.6666 22.3471 16.5964 22.4722 16.4713C22.5972 16.3463 22.6674 16.1767 22.6674 15.9998V13.9998H23.334C24.4386 13.9998 25.334 13.1045 25.334 11.9999C25.334 10.8953 24.4386 9.99988 23.334 9.99988H22.0007C21.8239 9.9998 21.6543 10.07 21.5292 10.1951C21.4041 10.3202 21.334 10.4897 21.334 10.6666V15.9999C21.3339 16.1767 21.4041 16.3463 21.5292 16.4714C21.6542 16.5964 21.8238 16.6666 22.0007 16.6665ZM22.6673 11.3333H23.334C23.7022 11.3333 24.0006 11.6318 24.0006 11.9999C24.0006 12.3681 23.7022 12.6666 23.334 12.6666H22.6673V11.3333Z" fill="#E51D24"/>
</svg>
