<svg width="40" height="40" viewBox="0 0 40 40" fill="none" xmlns="http://www.w3.org/2000/svg">
<g clip-path="url(#clip0)">
<path d="M15.6572 16.8688V17.495C15.6572 17.8186 15.9196 18.081 16.2432 18.081C16.5668 18.081 16.8291 17.8186 16.8291 17.495V16.8688C16.8291 16.5452 16.5668 16.2828 16.2432 16.2828C15.9196 16.2828 15.6572 16.5452 15.6572 16.8688Z" fill="#E51D24"/>
<path d="M23.1719 16.8688V17.495C23.1719 17.8186 23.4342 18.081 23.7578 18.081C24.0814 18.081 24.3438 17.8186 24.3438 17.495V16.8688C24.3438 16.5452 24.0814 16.2828 23.7578 16.2828C23.4342 16.2828 23.1719 16.5452 23.1719 16.8688Z" fill="#E51D24"/>
<path d="M17.4378 14.2216C17.3594 13.9076 17.041 13.7167 16.7273 13.7953L14.2223 14.4215C13.9083 14.4999 13.7175 14.8181 13.796 15.1321C13.8625 15.3983 14.1014 15.576 14.3639 15.576C14.411 15.576 14.4588 15.5703 14.5065 15.5584L17.0115 14.9321C17.3255 14.8536 17.5163 14.5355 17.4378 14.2216Z" fill="#E51D24"/>
<path d="M25.6365 15.576C25.899 15.576 26.1379 15.3983 26.2045 15.132C26.283 14.8181 26.0921 14.5 25.7781 14.4215L23.2731 13.7952C22.9595 13.7167 22.6411 13.9076 22.5626 14.2216C22.4841 14.5355 22.6749 14.8536 22.9889 14.9321L25.4939 15.5584C25.5416 15.5703 25.5894 15.576 25.6365 15.576Z" fill="#E51D24"/>
<path d="M34.0738 35.1741L27.5692 33.1415C26.7638 32.8898 26.2226 32.1537 26.2226 31.3098V30.0202C26.2226 29.6966 25.9602 29.4342 25.6366 29.4342C25.313 29.4342 25.0507 29.6966 25.0507 30.0202V31.3098C25.0507 32.2838 25.4984 33.1686 26.2295 33.7411C24.5823 35.3882 22.3432 36.3231 20.0003 36.3231C17.662 36.3231 15.4173 35.3877 13.7705 33.7416C14.502 33.1691 14.9499 32.2841 14.9499 31.3098V27.9804C16.4674 28.8748 18.203 29.3537 20.0003 29.3537C22.5489 29.3537 24.9738 28.392 26.828 26.646C28.5386 25.0354 29.6155 22.9004 29.8961 20.586H30.6468C31.3198 20.586 31.9714 20.306 32.4348 19.8177C32.9047 19.3226 33.1438 18.6733 33.108 17.9896C33.0636 17.1406 32.5727 16.4114 31.859 16.0037V6.84852C31.859 3.07227 28.7867 0 25.0104 0H16.869C15.6216 0 14.5137 0.753047 14.0345 1.87875H13.1114C10.371 1.87875 8.14164 4.1082 8.14164 6.84852V13.9941C8.14164 14.3177 8.40398 14.5801 8.72758 14.5801C9.05117 14.5801 9.31352 14.3177 9.31352 13.9941V6.84852C9.31352 4.75438 11.0173 3.05063 13.1114 3.05063H14.4525C14.7195 3.05063 14.9527 2.87008 15.0197 2.61156C15.2393 1.76391 15.9998 1.17188 16.869 1.17188H25.0103C28.1405 1.17188 30.687 3.71844 30.687 6.84852V15.6608C30.6384 15.6582 30.5896 15.6565 30.5404 15.6565H30.0205C29.3076 15.6565 28.7276 15.0766 28.7276 14.3637V11.2323C28.7276 9.52797 27.3409 8.14133 25.6366 8.14133C25.313 8.14133 25.0507 8.40367 25.0507 8.72727C25.0507 9.05086 25.313 9.3132 25.6366 9.3132C26.6948 9.3132 27.5557 10.1741 27.5557 11.2323V14.3637C27.5557 15.2823 28.0612 16.0845 28.8082 16.5084V18.1212C28.8082 18.8341 28.2283 19.414 27.5154 19.414H12.4852C11.7723 19.414 11.1924 18.8341 11.1924 18.1212V16.5084C11.9395 16.0845 12.4449 15.2822 12.4449 14.3637V11.2323C12.4449 10.1741 13.3059 9.3132 14.364 9.3132H23.1314C23.455 9.3132 23.7173 9.05086 23.7173 8.72727C23.7173 8.40367 23.455 8.14133 23.1314 8.14133H14.364C12.6596 8.14133 11.273 9.52797 11.273 11.2323V14.3637C11.273 15.0766 10.693 15.6565 9.98016 15.6565H9.46023C8.08898 15.6565 6.96117 16.6812 6.89266 17.9895C6.85688 18.6732 7.09602 19.3225 7.56594 19.8177C8.0293 20.3059 8.68094 20.5859 9.35391 20.5859H10.1046C10.3852 22.9003 11.4621 25.0353 13.1727 26.6459C13.3682 26.8301 13.5704 27.0048 13.7781 27.1713V31.3098C13.7781 32.1537 13.237 32.8898 12.4315 33.1415L5.92688 35.1741C4.62953 35.5795 3.75781 36.7652 3.75781 38.1244V39.4141C3.75781 39.7377 4.02016 40 4.34375 40C4.66734 40 4.92969 39.7377 4.92969 39.4141V38.1245C4.92969 37.2805 5.47086 36.5445 6.27641 36.2927L10.0856 35.1023C11.1977 36.5525 12.6313 37.7582 14.249 38.5991C16.0117 39.5156 18.0005 40 20.0003 40C21.9893 40 23.9684 39.5205 25.7238 38.6136C27.3524 37.7721 28.7963 36.5605 29.9145 35.1022L33.7241 36.2927C34.5296 36.5445 35.0708 37.2805 35.0708 38.1245V39.4141C35.0708 39.7377 35.3331 40 35.6567 40C35.9803 40 36.2427 39.7377 36.2427 39.4141V38.1245C36.2427 36.7652 35.3711 35.5796 34.0738 35.1741ZM29.9802 16.8274C29.981 16.8273 29.9809 16.8274 29.9802 16.8274V16.8274ZM29.9802 18.1213V16.8284H30.5405C31.2756 16.8284 31.9024 17.3768 31.9377 18.0509C31.9566 18.4103 31.8312 18.7513 31.5847 19.011C31.338 19.2709 31.0049 19.4141 30.6467 19.4141H29.6127C29.8454 19.038 29.9802 18.5951 29.9802 18.1213ZM9.35391 19.4141C8.99578 19.4141 8.66266 19.2709 8.41594 19.0109C8.16945 18.7512 8.04414 18.4102 8.06289 18.0508C8.0982 17.3767 8.725 16.8284 9.46016 16.8284H10.0205V18.1212C10.0205 18.595 10.1552 19.0379 10.3879 19.414H9.35391V19.4141ZM11.2865 20.5859H28.7141C28.651 21.0427 28.5525 21.4879 28.4221 21.9191H17.4953C17.1717 21.9191 16.9094 22.1814 16.9094 22.505C16.9094 22.8286 17.1717 23.0909 17.4953 23.0909H26.9323C25.2672 24.3156 22.7193 25.0504 20.0003 25.0504C17.2812 25.0504 14.7334 24.3156 13.0683 23.0909H14.9904C15.314 23.0909 15.5763 22.8286 15.5763 22.505C15.5763 22.1814 15.314 21.9191 14.9904 21.9191H11.5784C11.4481 21.4879 11.3496 21.0427 11.2865 20.5859ZM12.6817 24.2537C14.541 25.5035 17.1574 26.2223 20.0003 26.2223C22.8431 26.2223 25.4596 25.5034 27.3189 24.2537C25.7332 26.6262 23.0309 28.1816 20.0003 28.1816C16.9698 28.1816 14.2674 26.6262 12.6817 24.2537ZM25.1859 37.5724C23.5734 38.4056 21.8287 38.8281 20.0003 38.8281C16.6327 38.8281 13.4251 37.307 11.2849 34.7276L12.6762 34.2928C14.562 36.3292 17.2226 37.495 20.0004 37.495C22.7837 37.495 25.4384 36.3312 27.3254 34.2931L28.7161 34.7277C27.744 35.8992 26.5344 36.8757 25.1859 37.5724Z" fill="#E51D24"/>
</g>
<defs>
<clipPath id="clip0">
<rect width="40" height="40" fill="white"/>
</clipPath>
</defs>
</svg>
