<svg width="25" height="25" viewBox="0 0 25 25" fill="none" xmlns="http://www.w3.org/2000/svg">
<g clip-path="url(#clip0)">
<path d="M18.2703 5.38996L13.1922 0.287226C13.1919 0.286933 13.1915 0.286688 13.1912 0.286347C12.8095 -0.0960752 12.1892 -0.0948545 11.8087 0.286444C11.8084 0.286737 11.8081 0.286981 11.8078 0.287323L6.72968 5.39006C6.34926 5.77233 6.35068 6.39069 6.733 6.77116C7.11528 7.15163 7.73359 7.15016 8.11406 6.76789L11.5234 3.34191V24.0235C11.5234 24.5628 11.9606 25 12.5 25C13.0393 25 13.4766 24.5628 13.4766 24.0235V3.34191L16.8859 6.76779C17.2664 7.15007 17.8847 7.15153 18.267 6.77106C18.6493 6.39055 18.6507 5.77219 18.2703 5.38996Z" fill="#979797"/>
</g>
<defs>
<clipPath id="clip0">
<rect width="25" height="25" fill="white"/>
</clipPath>
</defs>
</svg>
