<svg width="20" height="20" viewBox="0 0 20 20" fill="none" xmlns="http://www.w3.org/2000/svg">
<path d="M0.615234 4.51103V15.4694C0.615234 17.621 2.35943 19.3652 4.51103 19.3652H15.4694C17.621 19.3652 19.3652 17.621 19.3652 15.4694V4.51103C19.3652 2.35943 17.621 0.615234 15.4694 0.615234H4.51103C2.35943 0.615234 0.615234 2.35943 0.615234 4.51103ZM11.9764 15.3028C7.35169 16.8985 3.08201 12.6288 4.67766 8.00411C5.2153 6.44543 6.44531 5.2153 8.004 4.67766C12.6288 3.08201 16.8985 7.35168 15.3028 11.9765C14.7652 13.5352 13.5352 14.7652 11.9764 15.3028ZM16.4963 4.3206C16.4227 4.70592 16.1039 4.93011 15.7741 4.93011C15.5734 4.93011 15.3687 4.84726 15.2121 4.66747C15.1982 4.65157 15.1853 4.63451 15.1738 4.61678C15.0121 4.36958 15.0071 4.07593 15.1445 3.83778C15.2418 3.6692 15.3988 3.54881 15.5869 3.49846C15.7747 3.44788 15.971 3.47385 16.1394 3.57124C16.3776 3.70857 16.52 3.96549 16.5038 4.26006C16.5026 4.2802 16.5002 4.30069 16.4963 4.3206Z" fill="white"/>
<path d="M9.99052 5.43524C7.47878 5.43524 5.43555 7.47847 5.43555 9.99022C5.43555 12.502 7.47878 14.5452 9.99052 14.5452C12.5023 14.5452 14.5455 12.502 14.5455 9.99022C14.5455 7.47847 12.5023 5.43524 9.99052 5.43524Z" fill="white"/>
</svg>
