<svg width="25" height="25" viewBox="0 0 25 25" fill="none" xmlns="http://www.w3.org/2000/svg">
<path d="M11.2607 1.31258C11.2607 1.02482 11.0277 0.791748 10.7399 0.791748H1.31283C1.02507 0.791748 0.791992 1.02482 0.791992 1.31258V10.7397C0.791992 11.0274 1.02507 11.2605 1.31283 11.2605H10.7399C11.0277 11.2605 11.2607 11.0274 11.2607 10.7397V1.31258ZM10.2191 10.2188H1.83366V1.83341H10.2191V10.2188Z" fill="#979797"/>
<path d="M24.2295 1.31258C24.2295 1.02482 23.9964 0.791748 23.7087 0.791748H14.2816C13.9938 0.791748 13.7607 1.02482 13.7607 1.31258V10.7397C13.7607 11.0274 13.9938 11.2605 14.2816 11.2605H23.7087C23.9964 11.2605 24.2295 11.0274 24.2295 10.7397V1.31258ZM23.1878 10.2188H14.8024V1.83341H23.1878V10.2188Z" fill="#979797"/>
<path d="M11.2607 14.2813C11.2607 13.9936 11.0277 13.7605 10.7399 13.7605H1.31283C1.02507 13.7605 0.791992 13.9936 0.791992 14.2813V23.7084C0.791992 23.9962 1.02507 24.2293 1.31283 24.2293H10.7399C11.0277 24.2293 11.2607 23.9962 11.2607 23.7084V14.2813ZM10.2191 23.1355H1.83366V14.8022H10.2191V23.1355Z" fill="#979797"/>
<path d="M24.2295 14.2813C24.2295 13.9936 23.9964 13.7605 23.7087 13.7605H14.2816C13.9938 13.7605 13.7607 13.9936 13.7607 14.2813V23.7084C13.7607 23.9962 13.9938 24.2293 14.2816 24.2293H23.7087C23.9964 24.2293 24.2295 23.9962 24.2295 23.7084V14.2813ZM23.1878 23.1355H14.8024V14.8022H23.1878V23.1355Z" fill="#979797"/>
</svg>
