<svg width="40" height="40" viewBox="0 0 40 40" fill="none" xmlns="http://www.w3.org/2000/svg">
<g clip-path="url(#clip0)">
<path d="M32.0741 17.5739H32.016C30.9027 17.5739 29.9655 18.5202 29.9655 19.7365V21.4223C29.9655 21.7581 29.6929 22.0307 29.3571 22.0307C29.0209 22.0307 28.7486 21.7581 28.7486 21.4223V18.3094C28.7486 17.0931 27.8655 16.1037 26.7525 16.1037C25.6333 16.1037 24.7502 17.0931 24.7502 18.3094V21.6087C24.7502 21.9448 24.4775 22.2171 24.1417 22.2171C23.8056 22.2171 23.5333 21.9448 23.5333 21.6087V17.4035C23.5333 16.1876 22.6152 15.227 21.5021 15.227H21.4404C20.3552 15.227 19.4479 16.138 19.4479 17.3118V22.047C19.4479 22.3832 19.1753 22.6555 18.8395 22.6555C18.5033 22.6555 18.231 22.3832 18.231 22.047V17.449C18.231 17.434 18.2293 17.4184 18.2293 17.4031C18.2293 17.3658 18.231 17.3284 18.231 17.2914V6.54125C18.231 5.32502 17.3132 4.33594 16.2006 4.33594C15.0876 4.33594 14.1701 5.32468 14.1691 6.53989L14.1569 24.3668C14.1565 24.6238 13.9953 24.853 13.7532 24.9396C13.5114 25.0261 13.2411 24.9515 13.0782 24.7528L10.9496 22.1618C10.3883 21.4586 9.55984 21.0206 8.66244 20.9523C7.78405 20.8943 6.92094 21.2039 6.27989 21.8073C6.27242 21.8141 6.26461 21.8223 6.25646 21.829L5.83984 22.1774L13.2197 36.3597C14.3847 38.5982 16.5876 39.9999 18.9682 39.9999H27.4991C31.1295 39.9999 34.0858 36.8058 34.0896 32.8933C34.0916 30.8214 34.0936 29.2673 34.0953 28.0155C34.0998 24.669 34.1011 23.4381 34.0926 19.7517C34.0899 18.5389 33.1844 17.5739 32.0741 17.5739Z" fill="black"/>
<path d="M10.6642 6.75413C11.0003 6.75413 11.2726 6.48182 11.2726 6.14568C11.2655 4.38822 12.1989 2.7608 13.7197 1.88003C15.2405 0.999267 17.1164 0.999267 18.6372 1.88003C20.158 2.7608 21.0914 4.38822 21.084 6.14568C21.084 6.48182 21.3566 6.75413 21.6924 6.75413C22.0286 6.75413 22.3009 6.48182 22.3009 6.14568C22.3094 3.95293 21.1441 1.92282 19.2464 0.824064C17.3487 -0.274688 15.0082 -0.274688 13.1105 0.824064C11.2129 1.92282 10.0476 3.95293 10.0557 6.14568C10.0557 6.48182 10.3284 6.75413 10.6642 6.75413Z" fill="black"/>
</g>
<defs>
<clipPath id="clip0">
<rect width="40" height="40" fill="white"/>
</clipPath>
</defs>
</svg>
