<svg width="40" height="40" viewBox="0 0 40 40" fill="none" xmlns="http://www.w3.org/2000/svg">
<path d="M24.2523 34.6591C23.9502 34.5401 23.6086 34.6887 23.4896 34.991L21.835 39.1963C21.716 39.4985 21.8647 39.8399 22.1669 39.9589C22.2375 39.9867 22.3104 39.9999 22.3821 39.9999C22.6167 39.9999 22.8384 39.8585 22.9295 39.6269L24.5841 35.4217C24.7032 35.1194 24.5545 34.778 24.2523 34.6591Z" fill="#E51D24"/>
<path d="M39.6665 35.5759L28.6337 25.1291L32.946 14.1693L33.7805 14.7304H33.7804C33.9626 14.853 34.1745 14.9164 34.3891 14.9164C34.4893 14.9164 34.5902 14.9025 34.6889 14.8744C34.9989 14.7861 35.2526 14.5669 35.385 14.2732L36.081 12.7297L37.4693 10.6649C38.8206 8.65523 38.2851 5.92087 36.2754 4.56953L35.1541 3.81556H37.1463C38.0394 3.81556 38.7659 3.08896 38.7659 2.19596V1.17624H39.1414C39.4662 1.17624 39.7295 0.912917 39.7295 0.588119C39.7295 0.26332 39.4662 0 39.1414 0H28.63C28.3051 0 28.0418 0.26332 28.0418 0.588119C28.0418 0.912917 28.3051 1.17624 28.63 1.17624H29.0145V2.19588C29.0145 2.68041 29.2291 3.11507 29.5675 3.41187C29.1255 3.71558 28.7321 4.1053 28.4152 4.57666L27.0267 6.64151L25.8598 7.86832C25.6378 8.10185 25.5306 8.41951 25.5657 8.73984C25.6008 9.06017 25.7743 9.34701 26.0418 9.52682L27.0945 10.2348L24.8279 12.381C24.5921 12.6043 24.5819 12.9766 24.8052 13.2124C24.921 13.3346 25.0765 13.3962 25.2324 13.3962C25.3776 13.3962 25.523 13.3428 25.6367 13.2351L28.0949 10.9074L31.9462 13.4972L27.7127 24.2571L20.8546 17.7632L23.8159 14.9591C24.0518 14.7357 24.062 14.3635 23.8387 14.1276C23.6152 13.8918 23.2429 13.8817 23.0072 14.105L19.9992 16.9533L12.904 10.2348L13.9568 9.5269C14.2242 9.34709 14.3977 9.06024 14.4328 8.73992C14.468 8.41959 14.3608 8.10185 14.1386 7.86832L12.9718 6.64159L11.5833 4.57674C11.2707 4.11173 10.8802 3.71864 10.4324 3.40983C10.77 3.11327 10.984 2.6797 10.984 2.19596V1.17624H11.3687C11.6935 1.17624 11.9568 0.912917 11.9568 0.588119C11.9568 0.26332 11.6935 0 11.3687 0H0.85734C0.532542 0 0.269221 0.26332 0.269221 0.588119C0.269221 0.912917 0.532542 1.17624 0.85734 1.17624H1.2328V2.19588C1.2328 3.08896 1.95932 3.81548 2.8524 3.81548H4.84471L3.72336 4.56945C2.98006 5.06935 2.41437 5.7736 2.08753 6.60614C1.96881 6.90851 2.11772 7.24978 2.42009 7.3685C2.72254 7.48714 3.06373 7.33839 3.18245 7.03594C3.42154 6.42681 3.83557 5.91146 4.37978 5.54549L6.14469 4.35874C6.85749 3.87947 7.71434 3.70648 8.55715 3.87155C9.40012 4.03669 10.1283 4.52012 10.6076 5.23292L11.6518 6.78579L4.54986 11.5613L3.50568 10.0084C3.33011 9.74732 3.19405 9.46275 3.10129 9.16266C3.00539 8.85229 2.67596 8.67852 2.36575 8.77442C2.05538 8.87032 1.88161 9.19967 1.97751 9.50996C2.10415 9.91976 2.28992 10.3082 2.52956 10.6647L3.91799 12.7296L4.61385 14.2729C4.7463 14.5668 5.00005 14.7859 5.30995 14.8742C5.40867 14.9024 5.5096 14.9163 5.60989 14.9163C5.82443 14.9163 6.03631 14.8528 6.21855 14.7303L7.05305 14.1691L11.3652 25.1288L0.332189 35.5759C0.0963142 35.7993 0.0861986 36.1715 0.309527 36.4074C0.42519 36.5295 0.580767 36.5911 0.736658 36.5911C0.881806 36.5911 1.02719 36.5377 1.14089 36.43L11.8294 26.3091L12.9033 29.0386C12.9944 29.2701 13.2161 29.4115 13.4507 29.4115C13.5224 29.4115 13.5952 29.3983 13.6659 29.3705C13.9681 29.2515 14.1168 28.9101 13.9978 28.6079L12.7502 25.4372L19.9993 18.573L27.2484 25.4372L24.4082 32.6556C24.2892 32.9578 24.4379 33.2992 24.7401 33.4182C24.8108 33.446 24.8836 33.4592 24.9553 33.4592C25.1899 33.4592 25.4116 33.3178 25.5027 33.0862L28.1693 26.3091L38.8577 36.43C38.9714 36.5377 39.1168 36.591 39.262 36.591C39.4178 36.591 39.5734 36.5294 39.6891 36.4073C39.9126 36.1715 39.9024 35.7993 39.6665 35.5759ZM37.5898 1.17624V2.19588C37.5898 2.44038 37.3909 2.63924 37.1464 2.63924H30.6342C30.3897 2.63924 30.1908 2.4403 30.1908 2.19588V1.17624H37.5898ZM29.3913 5.233C30.3806 3.76161 32.3826 3.36937 33.8543 4.35882L35.6191 5.54557C37.0906 6.53502 37.4826 8.53705 36.4932 10.0085L35.449 11.5615L28.347 6.78595L29.3913 5.233ZM27.6258 7.71831L34.8576 12.5811L34.3538 13.6985L26.7811 8.60645L27.6258 7.71831ZM2.40903 2.19588V1.17624H9.80796V2.19588C9.80796 2.44038 9.6091 2.63924 9.3646 2.63924H2.8524C2.6079 2.63932 2.40903 2.44038 2.40903 2.19588ZM5.64502 13.6985L5.1412 12.5811L12.3729 7.71831L13.2177 8.60645L5.64502 13.6985ZM12.286 24.257L8.05239 13.4972L11.9038 10.9074L19.144 17.7631L12.286 24.257Z" fill="#E51D24"/>
<path d="M16.8621 35.8857C16.7431 35.5835 16.4019 35.4347 16.0995 35.5537C15.7973 35.6727 15.6486 36.0141 15.7676 36.3163L17.0701 39.627C17.1613 39.8585 17.3829 39.9999 17.6176 39.9999C17.6892 39.9999 17.762 39.9867 17.8327 39.9589C18.1349 39.84 18.2836 39.4985 18.1647 39.1963L16.8621 35.8857Z" fill="#E51D24"/>
<path d="M36.14 22.2082C35.7902 21.9891 35.5073 21.7157 35.2754 21.3724C35.084 21.0894 34.7668 20.9299 34.4256 20.948C34.0826 20.9655 33.7806 21.1572 33.6178 21.4607C33.449 21.7753 33.1847 22.0219 32.8097 22.2146C32.4999 22.3739 32.304 22.6766 32.2856 23.0244C32.2672 23.3724 32.4303 23.6943 32.7218 23.8856C33.0667 24.1118 33.3433 24.3967 33.5673 24.7564C33.7446 25.0412 34.0503 25.2117 34.385 25.2126H34.3877C34.7241 25.2126 35.0323 25.0421 35.2125 24.7562C35.441 24.3933 35.7443 24.0978 36.1398 23.8526C36.4251 23.6759 36.5958 23.3699 36.5967 23.0343C36.5974 22.6966 36.4269 22.3878 36.14 22.2082ZM34.3911 23.8762C34.1742 23.5799 33.9217 23.3186 33.6364 23.0953C33.9842 22.8736 34.2693 22.6033 34.4886 22.2874C34.7116 22.5684 34.9687 22.8166 35.2571 23.0291C34.9203 23.2728 34.6305 23.5562 34.3911 23.8762Z" fill="#E51D24"/>
<path d="M16.6431 33.3299C16.9408 33.1454 17.1189 32.8262 17.1198 32.4759C17.1206 32.1233 16.9423 31.801 16.643 31.6135C16.2517 31.3684 15.9218 31.0496 15.6625 30.6659C15.4629 30.3704 15.1317 30.2047 14.7757 30.2229C14.4177 30.2411 14.1024 30.4412 13.9324 30.7582C13.7383 31.1198 13.4354 31.4028 13.0066 31.6234C12.6832 31.7897 12.4787 32.1056 12.4595 32.4686C12.4403 32.8318 12.6105 33.1678 12.9148 33.3675C13.3062 33.6241 13.62 33.9474 13.8742 34.3555C14.0592 34.6527 14.3783 34.8307 14.7277 34.8316H14.7303C15.0815 34.8316 15.4034 34.6535 15.5914 34.3548C15.8474 33.9487 16.2011 33.6038 16.6431 33.3299ZM14.7336 33.5234C14.4663 33.1427 14.1469 32.8127 13.7801 32.5382C14.2234 32.2708 14.578 31.9346 14.8386 31.5343C15.1137 31.8955 15.4388 32.2092 15.8091 32.4708C15.3826 32.767 15.0223 33.1197 14.7336 33.5234Z" fill="#E51D24"/>
<path d="M4.67662 25.4023C4.84678 25.6755 5.14014 25.8392 5.46141 25.8399H5.46384C5.78652 25.8399 6.08199 25.6764 6.25474 25.4022C6.4547 25.0848 6.72038 24.826 7.06697 24.6112C7.34072 24.4416 7.50469 24.148 7.5054 23.8258C7.50618 23.5018 7.34245 23.2056 7.06737 23.0334C6.76092 22.8415 6.5132 22.6021 6.3101 22.3015C6.12653 22.0299 5.82134 21.8779 5.49474 21.8941C5.1657 21.9108 4.87603 22.0946 4.71983 22.3858C4.57445 22.6567 4.34579 22.8695 4.02083 23.0366C3.72356 23.1896 3.53559 23.48 3.51795 23.8137C3.50031 24.1476 3.65682 24.4565 3.93645 24.6399C4.23828 24.8378 4.48035 25.0872 4.67662 25.4023ZM5.55723 23.2557C5.73116 23.4654 5.92657 23.6543 6.14206 23.8205C5.88517 24.0146 5.65964 24.2352 5.46745 24.4801C5.29799 24.2589 5.10611 24.0601 4.89313 23.8852C5.15653 23.707 5.37852 23.4966 5.55723 23.2557Z" fill="#E51D24"/>
</svg>
