<svg width="40" height="40" viewBox="0 0 40 40" fill="none" xmlns="http://www.w3.org/2000/svg">
<path d="M25.0716 25.8947C25.1437 25.7772 25.2159 25.6618 25.2881 25.5422C28.5347 20.1672 30.1684 15.4653 30.145 11.5687C30.1306 8.88788 29.0556 6.32173 27.155 4.43102C25.2544 2.5403 22.6827 1.47873 20.0019 1.47827C17.321 1.47782 14.7489 2.53852 12.8477 4.42859C10.9465 6.31867 9.87064 8.88445 9.85531 11.5653C9.83156 15.4653 11.4656 20.1678 14.7122 25.5422C14.7844 25.6618 14.8566 25.7772 14.9288 25.8947C8.09375 26.7393 3.5625 29.1822 3.5625 32.0825C3.5625 35.7237 10.7812 38.5759 20 38.5759C29.2188 38.5759 36.4375 35.7237 36.4375 32.0825C36.4375 29.1822 31.9062 26.7393 25.0716 25.8947ZM10.9491 11.5687C10.9423 10.3756 11.1714 9.19298 11.6234 8.08879C12.0753 6.98459 12.7411 5.98064 13.5824 5.13468C14.4237 4.28871 15.424 3.61743 16.5257 3.15944C17.6274 2.70146 18.8088 2.4658 20.0019 2.46602C21.195 2.46625 22.3763 2.70236 23.4778 3.16076C24.5793 3.61917 25.5793 4.29083 26.4203 5.13711C27.2614 5.9834 27.9267 6.9876 28.3783 8.09197C28.8298 9.19634 29.0585 10.3791 29.0512 11.5721C29.0981 19.3403 21.8356 28.9212 20 31.2187C18.1644 28.9212 10.9016 19.34 10.9491 11.5687ZM20 37.4822C10.8216 37.4822 4.65625 34.69 4.65625 32.0825C4.65625 29.77 9.22781 27.6184 15.5731 26.9206C16.8003 28.8367 18.1394 30.6789 19.5834 32.4375C19.6347 32.4979 19.6985 32.5465 19.7705 32.5798C19.8424 32.6131 19.9207 32.6304 20 32.6304C20.0793 32.6304 20.1576 32.6131 20.2295 32.5798C20.3015 32.5465 20.3653 32.4979 20.4166 32.4375C21.8607 30.6789 23.1999 28.8368 24.4272 26.9206C30.7709 27.6184 35.3441 29.7687 35.3441 32.0825C35.3437 34.69 29.1784 37.4822 20 37.4822Z" fill="#E51D24"/>
<path d="M15.5283 34.3147C13.1014 34.0041 11.1533 33.4572 10.0446 32.7757C9.98337 32.7366 9.915 32.71 9.84345 32.6976C9.7719 32.6852 9.69859 32.6872 9.6278 32.7034C9.55702 32.7196 9.49017 32.7498 9.43117 32.7921C9.37217 32.8345 9.32219 32.8881 9.28415 32.95C9.24611 33.0119 9.22077 33.0807 9.20962 33.1524C9.19846 33.2242 9.20171 33.2975 9.21917 33.368C9.23664 33.4384 9.26796 33.5048 9.31133 33.563C9.35469 33.6213 9.40923 33.6703 9.47174 33.7072C10.7102 34.4685 12.8121 35.0697 15.3896 35.3994C15.4128 35.4024 15.4362 35.4039 15.4596 35.4038C15.5982 35.4031 15.7314 35.3499 15.8322 35.2547C15.933 35.1596 15.994 35.0297 16.0027 34.8914C16.0114 34.7531 15.9673 34.6166 15.8792 34.5095C15.7912 34.4025 15.6657 34.3328 15.5283 34.3147Z" fill="#E51D24"/>
<path d="M20.9185 34.5759C20.1563 34.5934 19.3626 34.5894 18.5879 34.5609C18.5161 34.5583 18.4445 34.5698 18.3771 34.5948C18.3097 34.6199 18.248 34.6579 18.1953 34.7068C18.1427 34.7558 18.1001 34.8146 18.0702 34.8799C18.0403 34.9452 18.0235 35.0158 18.0209 35.0876C18.0182 35.1595 18.0298 35.2311 18.0548 35.2985C18.0798 35.3658 18.1179 35.4276 18.1668 35.4802C18.2157 35.5329 18.2745 35.5754 18.3399 35.6053C18.4052 35.6353 18.4758 35.652 18.5476 35.6547C19.0282 35.6722 19.5163 35.6812 20.0001 35.6812C20.3182 35.6812 20.6329 35.6775 20.9442 35.67C21.0892 35.6666 21.2269 35.6058 21.327 35.5009C21.4272 35.396 21.4816 35.2556 21.4782 35.1106C21.4775 35.0385 21.4623 34.9672 21.4336 34.9011C21.4049 34.8349 21.3632 34.7751 21.3111 34.7253C21.2589 34.6755 21.1973 34.6366 21.1299 34.6109C21.0625 34.5853 20.9906 34.5734 20.9185 34.5759Z" fill="#E51D24"/>
<path d="M24.6181 11.5687C24.618 10.6553 24.347 9.76249 23.8395 9.00312C23.3319 8.24375 22.6106 7.65193 21.7667 7.3025C20.9229 6.95307 19.9943 6.86172 19.0985 7.04001C18.2027 7.2183 17.3799 7.65821 16.7341 8.30412C16.0883 8.95003 15.6486 9.77294 15.4705 10.6688C15.2924 11.5646 15.3839 12.4931 15.7335 13.3369C16.0831 14.1807 16.6751 14.9019 17.4346 15.4093C18.194 15.9167 19.0869 16.1875 20.0003 16.1874C21.2247 16.1859 22.3985 15.6988 23.2642 14.8329C24.13 13.967 24.6168 12.7931 24.6181 11.5687ZM16.4759 11.5687C16.476 10.8716 16.6828 10.1903 17.0702 9.6108C17.4575 9.03131 18.008 8.57968 18.652 8.31302C19.296 8.04637 20.0046 7.97666 20.6882 8.11272C21.3718 8.24878 21.9998 8.58449 22.4926 9.07741C22.9854 9.57033 23.321 10.1983 23.457 10.882C23.5929 11.5656 23.5231 12.2742 23.2563 12.9182C22.9895 13.5621 22.5378 14.1125 21.9582 14.4997C21.3787 14.887 20.6973 15.0937 20.0003 15.0937C19.0657 15.0927 18.1698 14.721 17.509 14.0601C16.8483 13.3992 16.4767 12.5032 16.4759 11.5687Z" fill="#E51D24"/>
</svg>
