<svg width="40" height="40" viewBox="0 0 40 40" fill="none" xmlns="http://www.w3.org/2000/svg">
<path d="M24.6136 28.2568H22.4209C22.0973 28.2568 21.835 28.5192 21.835 28.8428C21.835 29.1664 22.0973 29.4287 22.4209 29.4287H24.6136C24.9372 29.4287 25.1996 29.1664 25.1996 28.8428C25.1996 28.5192 24.9372 28.2568 24.6136 28.2568Z" fill="#E51D24"/>
<path d="M37.5191 21.984L34.3284 20.7533L32.7016 19.1265C32.5971 19.022 32.4625 18.9654 32.325 18.9566V17.6621C33.0918 16.8446 33.6375 15.8094 33.8578 14.6432C33.9945 14.6493 34.1325 14.6383 34.2687 14.6105C35.0483 14.4509 35.6142 13.7275 35.6142 12.8906V12.4634C35.6142 11.9792 35.4179 11.5349 35.0982 11.2171C35.6156 8.40305 35.1894 6.10976 33.8602 4.57483C32.5745 3.09022 30.5031 2.3806 27.8702 2.52303C25.4377 2.65451 23.8673 3.77374 23.3698 4.18319C23.0975 4.21553 22.6336 4.31116 22.1641 4.59288C21.5133 4.98335 20.7376 5.80359 20.7376 7.49367C20.7376 8.96805 20.9732 10.199 21.1438 10.8974C20.5719 11.176 20.1894 11.7797 20.1894 12.4699V12.8906C20.1894 13.7274 20.7552 14.4508 21.5348 14.6104C21.671 14.6383 21.8091 14.6492 21.9458 14.6431C22.166 15.8093 22.7119 16.8446 23.4785 17.6621V18.9565C23.341 18.9654 23.2063 19.0219 23.1019 19.1264L21.4751 20.7532L18.2844 21.9839C18.0084 22.0903 17.7447 22.2283 17.5008 22.394C17.2332 22.5759 17.1636 22.9403 17.3454 23.208C17.4588 23.3748 17.6431 23.4647 17.8306 23.4647C17.944 23.4647 18.0585 23.4318 18.1594 23.3633C18.3294 23.2478 18.5134 23.1515 18.7061 23.0772L21.6673 21.935L23.9314 25.3312C24.212 25.7522 24.6619 26.0223 25.1654 26.0721C25.2214 26.0776 25.2774 26.0804 25.333 26.0804C25.6245 26.0804 25.9073 26.0037 26.1577 25.8621L25.6718 36.8831C25.6575 37.2064 25.9081 37.48 26.2314 37.4943C26.2402 37.4946 26.2489 37.4948 26.2577 37.4948C26.5694 37.4948 26.8288 37.2491 26.8426 36.9346L27.2935 26.7048H28.5099L28.9609 36.9346C28.9747 37.2492 29.2341 37.4948 29.5458 37.4948C29.5546 37.4948 29.5633 37.4946 29.5721 37.4943C29.8953 37.48 30.1459 37.2064 30.1317 36.8831L29.6458 25.8621C29.8961 26.0037 30.1789 26.0804 30.4704 26.0804C30.526 26.0804 30.5821 26.0776 30.6381 26.0721C31.1416 26.0223 31.5914 25.7522 31.8721 25.3312L34.1361 21.935L37.0973 23.0772C37.5126 23.2373 37.8701 23.4929 38.1512 23.8117L36.1254 25.8376C35.3934 26.5695 34.9904 27.5427 34.9904 28.5777V36.9089C34.9904 37.2325 35.2527 37.4949 35.5763 37.4949C35.8999 37.4949 36.1622 37.2325 36.1622 36.9089V28.5777C36.1622 27.8557 36.4434 27.1768 36.954 26.6662L38.7319 24.8883C38.8033 25.1502 38.8367 25.4256 38.8254 25.7072L38.3716 36.8852C38.3585 37.2086 38.61 37.4813 38.9333 37.4945C38.9414 37.4948 38.9494 37.495 38.9575 37.495C39.2701 37.495 39.5297 37.248 39.5425 36.9328L39.9965 25.7545C40.063 24.0964 39.0674 22.5812 37.5191 21.984ZM23.0928 14.4015C22.9894 13.8389 22.4685 13.43 21.9062 13.4717C21.8618 13.4749 21.816 13.4717 21.7699 13.4624C21.5369 13.4147 21.3612 13.1689 21.3612 12.8906V12.4699C21.3612 12.1981 21.5429 11.9532 21.7747 11.9125C21.9703 11.8781 22.1576 11.9499 22.2762 12.1045C22.3837 12.2448 22.5273 12.3451 22.6911 12.3945C22.9311 12.467 23.1957 12.4244 23.3991 12.2808C23.7655 12.0221 24.0888 11.7061 24.36 11.3414C24.5531 11.0817 24.4991 10.7147 24.2395 10.5217C23.9797 10.3285 23.6127 10.3825 23.4196 10.6422C23.2844 10.8241 23.1316 10.9892 22.9634 11.1352C22.7776 10.9763 22.5605 10.8615 22.328 10.796C22.1774 10.2192 21.9094 8.98368 21.9094 7.49352C21.9094 6.59609 22.1861 5.96554 22.7316 5.61945C23.1573 5.34937 23.6079 5.33859 23.6076 5.33851C23.7573 5.33851 23.9031 5.27952 24.0119 5.17663C24.0262 5.16319 25.4666 3.82647 27.9333 3.69311C30.1913 3.57123 31.9344 4.14124 32.9742 5.34187C34.0221 6.55203 34.3711 8.40993 33.9925 10.7353C33.8356 10.7298 33.6638 10.7417 33.4928 10.7702L32.9423 9.44813C32.83 9.17844 32.5357 9.03282 32.2531 9.10649C32.1986 9.12071 26.7876 10.4924 24.5187 7.66774C24.3162 7.41547 23.9474 7.37516 23.695 7.57781C23.4427 7.78047 23.4024 8.14922 23.6052 8.40157C25.922 11.2861 30.5192 10.6586 32.0496 10.3526L32.4753 11.3749C32.6583 11.8143 33.1266 12.0543 33.5882 11.9455C33.7776 11.9009 33.9586 11.8999 34.0266 11.9133C34.2636 11.9605 34.4422 12.1968 34.4422 12.4632V12.8906C34.4422 13.1688 34.2665 13.4146 34.0336 13.4623C33.9875 13.4717 33.9415 13.4749 33.8972 13.4716C33.335 13.4306 32.8141 13.8388 32.7107 14.4015C32.2844 16.7221 30.262 18.4065 27.9017 18.4065C25.5415 18.4065 23.5191 16.7221 23.0928 14.4015ZM25.6921 24.7591C25.5435 24.9076 25.3708 24.9149 25.2809 24.906C25.1912 24.8972 25.0231 24.8561 24.9066 24.6812L22.6257 21.26L23.543 20.3427L27.0445 23.4066L25.6921 24.7591ZM27.3452 25.533L27.3806 24.7277L27.9017 24.2067L28.4227 24.7277L28.4581 25.533H27.3452ZM27.9017 22.5994L24.6504 19.7545V18.6331C25.5957 19.2343 26.7141 19.5784 27.9017 19.5784C29.0893 19.5784 30.2078 19.2343 31.1532 18.6331V19.7545L27.9017 22.5994ZM30.8971 24.6812C30.7804 24.8562 30.6124 24.8972 30.5227 24.906C30.4328 24.9149 30.26 24.9076 30.1114 24.759L28.759 23.4065L32.2606 20.3426L33.1778 21.2599L30.8971 24.6812Z" fill="#E51D24"/>
<path d="M18.5817 25.0547L15.7206 23.8058L14.1566 22.2418C14.0518 22.137 13.9171 22.0807 13.78 22.072V21.1502C15.1167 20.2718 16.0948 18.8749 16.4091 17.2103C16.563 17.2171 16.7184 17.2024 16.8715 17.1662C17.6213 16.9888 18.1654 16.2702 18.1654 15.4577V15.0306C18.1654 14.437 17.8709 13.903 17.4146 13.5897C17.5488 13.058 17.6172 12.514 17.6172 11.9664C17.6172 9.53889 16.305 7.40076 14.3271 6.1731C14.306 4.14708 12.5767 2.50488 10.4531 2.50488C8.32938 2.50488 6.60008 4.14708 6.57898 6.1731C4.60116 7.40076 3.28897 9.53897 3.28897 11.9664C3.28897 12.5123 3.35694 13.0548 3.49038 13.585C3.03428 13.8967 2.74077 14.4332 2.74077 15.037V15.4577C2.74077 16.2702 3.28491 16.9888 4.03468 17.1662C4.1878 17.2024 4.34312 17.2171 4.4971 17.2103C4.8114 18.8749 5.78961 20.2718 7.12625 21.1502V22.072C6.98914 22.0807 6.85445 22.137 6.74969 22.2418L5.1857 23.8058L2.32467 25.0547C0.868962 25.6901 -0.0638543 27.1833 0.00341162 28.7702L0.349429 36.9338C0.362788 37.2486 0.622242 37.4949 0.934431 37.4949C0.94279 37.4949 0.951228 37.4948 0.959665 37.4944C1.28303 37.4807 1.53396 37.2075 1.52029 36.8842L1.1742 28.7205C1.15193 28.1945 1.28865 27.6841 1.54568 27.2448L3.08358 29.0903C3.5696 29.6735 3.83718 30.4127 3.83718 31.1718V36.909C3.83718 37.2326 4.09952 37.4949 4.42312 37.4949C4.74671 37.4949 5.00906 37.2326 5.00906 36.909V31.1718C5.00906 30.1391 4.64491 29.1335 3.98382 28.3401L2.34889 26.3782C2.48787 26.2824 2.63561 26.1976 2.7935 26.1286L5.28695 25.0402L7.04899 27.9003C7.22297 28.1827 7.51063 28.3742 7.83829 28.4258C7.89719 28.4351 7.95625 28.4396 8.01508 28.4396C8.28298 28.4396 8.54391 28.3447 8.75079 28.1681L9.86736 27.2154V36.9089C9.86736 37.2325 10.1297 37.4949 10.4533 37.4949C10.7769 37.4949 11.0392 37.2325 11.0392 36.9089V27.2155L12.1557 28.1683C12.3626 28.3448 12.6235 28.4397 12.8914 28.4397C12.9502 28.4397 13.0093 28.4351 13.0682 28.4259C13.3959 28.3744 13.6835 28.1829 13.8575 27.9004L15.6196 25.0403L18.113 26.1287C18.2708 26.1976 18.4186 26.2825 18.5576 26.3783L16.9227 28.3402C16.2616 29.1335 15.8975 30.1392 15.8975 31.1719V36.9091C15.8975 37.2327 16.1598 37.495 16.4834 37.495C16.807 37.495 17.0693 37.2327 17.0693 36.9091V31.1719C17.0693 30.4128 17.337 29.6736 17.8229 29.0904L19.3608 27.2449C19.6179 27.6842 19.7546 28.1946 19.7323 28.7206L19.3863 36.8842C19.3726 37.2075 19.6236 37.4807 19.9469 37.4945C19.9554 37.4949 19.9637 37.495 19.9722 37.495C20.2843 37.495 20.5438 37.2488 20.5572 36.9338L20.9032 28.7703C20.9704 27.1833 20.0375 25.6901 18.5817 25.0547ZM10.4532 3.67676C11.6998 3.67676 12.7515 4.472 13.0625 5.5495C12.2536 5.24419 11.3735 5.0763 10.4532 5.0763C9.53298 5.0763 8.65282 5.24419 7.84391 5.5495C8.15493 4.472 9.20657 3.67676 10.4532 3.67676ZM5.64421 16.9688C5.54093 16.406 5.01913 15.9973 4.45773 16.0388C4.40796 16.0424 4.35655 16.0381 4.30468 16.0258C4.08124 15.9729 3.91272 15.7287 3.91272 15.4577V15.037C3.91272 14.7652 4.09436 14.5203 4.32616 14.4796C4.52179 14.4452 4.70905 14.5171 4.82749 14.6716C4.93507 14.8119 5.07859 14.9122 5.24257 14.9617C5.4825 15.0342 5.74726 14.9916 5.95054 14.848C6.3114 14.5933 6.63047 14.2828 6.89891 13.9253C7.0932 13.6666 7.04094 13.2992 6.78219 13.105C6.52336 12.9107 6.15609 12.963 5.96179 13.2217C5.8289 13.3987 5.67929 13.5595 5.51476 13.7024C5.26406 13.488 4.95663 13.3538 4.63054 13.3131C4.51827 12.8718 4.46085 12.4205 4.46085 11.9665C4.46085 8.8135 7.14898 6.24826 10.4532 6.24826C13.7574 6.24826 16.4455 8.81342 16.4455 11.9665C16.4455 12.4196 16.3884 12.87 16.2765 13.3105C16.1223 13.3228 15.9656 13.348 15.8205 13.3857L15.38 13.0235C15.1587 12.8415 14.8801 12.7504 14.5982 12.7672C13.7369 12.818 9.3261 12.9345 7.06313 10.2262C6.85563 9.97796 6.48617 9.94483 6.23781 10.1523C5.98945 10.3598 5.9564 10.7294 6.1639 10.9776C7.28 12.3134 8.91696 13.2166 11.0292 13.6622C12.6465 14.0034 14.0842 13.9702 14.6475 13.9381L15.3346 14.5032C15.5238 14.6588 15.789 14.6807 16.0008 14.5574C16.1002 14.5033 16.433 14.4516 16.5782 14.4806C16.8152 14.5277 16.9938 14.7641 16.9938 15.0306V15.4577C16.9938 15.7288 16.8253 15.973 16.6018 16.0258C16.55 16.0381 16.4986 16.0425 16.4488 16.0388C15.8877 15.998 15.3656 16.406 15.2622 16.9687C14.836 19.2894 12.8135 20.9738 10.4533 20.9738C8.09297 20.9738 6.07047 19.2894 5.64421 16.9688ZM8.0236 27.2482L6.26125 24.3875L7.16406 23.4847L9.59048 25.9111L8.0236 27.2482ZM10.4532 25.1165L8.29821 22.9615V21.7493C8.97095 22.0054 9.6979 22.1457 10.4532 22.1457C11.2085 22.1457 11.9355 22.0054 12.6082 21.7494V22.9615L10.4532 25.1165ZM12.8828 27.2482L11.316 25.9111L13.7424 23.4847L14.6452 24.3875L12.8828 27.2482Z" fill="#E51D24"/>
<path d="M8.26075 30.8412H6.61621C6.29262 30.8412 6.03027 31.1035 6.03027 31.4271C6.03027 31.7507 6.29262 32.0131 6.61621 32.0131H8.26075C8.58434 32.0131 8.84669 31.7507 8.84669 31.4271C8.84669 31.1035 8.58434 30.8412 8.26075 30.8412Z" fill="#E51D24"/>
</svg>
