<svg width="40" height="40" viewBox="0 0 40 40" fill="none" xmlns="http://www.w3.org/2000/svg">
<g clip-path="url(#clip0)">
<path d="M35.3929 28.2283C35.1735 28.1374 34.921 28.1876 34.7531 28.3555L28.337 34.7717C28.1691 34.9396 28.1189 35.1921 28.2098 35.4115C28.3006 35.631 28.5148 35.7739 28.7522 35.7739H35.1683C35.4926 35.7739 35.7554 35.5111 35.7554 35.1868V28.7707C35.7553 28.5333 35.6123 28.3192 35.3929 28.2283ZM30.1694 34.5998L34.581 30.1881V34.5998H30.1694Z" fill="#E51D24"/>
<path d="M39.6377 18.8178C39.4183 18.7269 39.1658 18.7771 38.9978 18.945L37.2394 20.7033V8.74778C37.2394 8.42348 36.9766 8.16066 36.6523 8.16066H32.1413L33.7788 6.52316C33.7791 6.52293 33.7793 6.52261 33.7795 6.52238L35.3573 4.94457C35.6954 4.60652 35.8816 4.15683 35.8816 3.6787C35.8816 3.20058 35.6954 2.75105 35.3573 2.41284L33.5328 0.588307C33.1948 0.250259 32.7451 0.0640869 32.2669 0.0640869C31.7888 0.0640869 31.3392 0.250259 31.0011 0.588307L29.4225 2.1669L27.515 4.07441L23.4288 8.16059H5.2047V2.35237C5.2047 2.02808 4.94181 1.76526 4.61759 1.76526C2.07149 1.76542 0 3.83675 0 6.38301V31.3195C0 31.3628 0.00500001 31.405 0.0139063 31.4456C0.0950002 32.526 0.562423 33.5299 1.3436 34.2919C2.1786 35.1063 3.28087 35.5548 4.44743 35.5548H22.3879L19.0091 38.9336C18.8412 39.1016 18.791 39.354 18.8818 39.5735C18.9727 39.7928 19.1868 39.9359 19.4243 39.9359H39.413C39.7372 39.9359 40.0001 39.6731 40.0001 39.3488V19.3602C40.0001 19.1228 39.857 18.9087 39.6377 18.8178ZM31.8315 1.4187C32.0715 1.17854 32.4626 1.17854 32.7026 1.4187L34.5272 3.24331C34.7673 3.48339 34.7673 3.87425 34.5272 4.11441L33.3638 5.27785L30.668 2.58214L31.8315 1.4187ZM29.8377 3.41245L32.5334 6.10808L31.4562 7.18535L28.7606 4.48972L29.8377 3.41245ZM38.826 25.9573H37.7428C37.4185 25.9573 37.1557 26.2201 37.1557 26.5444C37.1557 26.8687 37.4185 27.1315 37.7428 27.1315H38.826V28.9007H37.7428C37.4185 28.9007 37.1557 29.1635 37.1557 29.4878C37.1557 29.8121 37.4185 30.0749 37.7428 30.0749H38.826V31.8441H37.7428C37.4185 31.8441 37.1557 32.1069 37.1557 32.4312C37.1557 32.7555 37.4185 33.0183 37.7428 33.0183H38.826V34.7875H37.7428C37.4185 34.7875 37.1557 35.0504 37.1557 35.3746C37.1557 35.6989 37.4185 35.9617 37.7428 35.9617H38.826V38.7619H20.8416L26.7719 32.8316C27.0012 32.6023 27.0012 32.2306 26.7719 32.0013C26.7456 31.975 26.7173 31.9522 26.6877 31.9319C26.4591 31.7753 26.1446 31.7984 25.9415 32.0013L23.5622 34.3807H4.44751C2.66688 34.3807 1.23344 32.9906 1.17703 31.2131C1.18039 31.1016 1.18906 30.9909 1.20297 30.8816C1.20305 30.8809 1.20313 30.8803 1.20321 30.8797C1.20977 30.8277 1.21766 30.776 1.22664 30.7246C1.22766 30.7188 1.22875 30.7129 1.22977 30.707C1.23797 30.6612 1.24719 30.6156 1.25727 30.5701C1.26008 30.5574 1.26305 30.5448 1.26602 30.5322C1.27492 30.4938 1.28453 30.4555 1.29485 30.4175C1.30047 30.3969 1.30633 30.3765 1.31235 30.3559C1.32094 30.3261 1.32985 30.2963 1.3393 30.2669C1.34875 30.2374 1.35883 30.2083 1.36907 30.1791C1.37617 30.1588 1.38321 30.1384 1.39086 30.1181C1.40516 30.0797 1.42032 30.0416 1.43594 30.0039C1.44039 29.993 1.44477 29.982 1.44938 29.9712C1.46946 29.9243 1.49032 29.878 1.51235 29.8322C1.51328 29.8302 1.51414 29.8283 1.51508 29.8263C1.9743 28.876 2.85751 28.1675 3.91743 27.9477C3.9204 27.947 3.92337 27.9463 3.92634 27.9457C3.97493 27.9358 4.02399 27.9273 4.07337 27.9194C4.08157 27.918 4.08977 27.9164 4.09813 27.9152C4.14274 27.9084 4.18782 27.903 4.2329 27.898C4.24556 27.8966 4.25813 27.8946 4.27087 27.8934C4.31438 27.889 4.35829 27.8861 4.4022 27.8834C4.4161 27.8825 4.43001 27.881 4.44392 27.8803C4.50142 27.8774 4.55938 27.8759 4.61759 27.8759C4.94181 27.8759 5.2047 27.6131 5.2047 27.2888V23.0319C5.2047 22.7076 4.94181 22.4448 4.61759 22.4448C4.29337 22.4448 4.03048 22.7076 4.03048 23.0319V26.7387C3.03907 26.8641 2.11883 27.3062 1.39321 28.0148C1.31688 28.0894 1.24453 28.1669 1.17406 28.2456V6.38301C1.17406 4.68449 2.41047 3.26909 4.0304 2.98956V8.74778V20.6835V20.6836C4.0304 21.0078 4.29329 21.2707 4.61751 21.2707C4.94173 21.2707 5.20462 21.0078 5.20462 20.6836V20.6835V9.33489H22.2547L19.009 12.5805C18.7797 12.8099 18.7797 13.1815 19.009 13.4108C19.2383 13.64 19.61 13.64 19.8393 13.4108L24.0872 9.16293C24.0873 9.16278 24.0874 9.16262 24.0875 9.16254L27.9301 5.31996L30.6257 8.01566L30.3094 8.33192C30.3092 8.33215 30.3089 8.33238 30.3087 8.33262L18.4705 20.1709L15.7749 17.4753L18.1083 15.1418C18.3376 14.9125 18.3376 14.5408 18.1083 14.3115C17.879 14.0823 17.5073 14.0823 17.2781 14.3115L14.5294 17.0601C14.5147 17.0748 14.501 17.0904 14.4881 17.1063C14.4838 17.1116 14.48 17.1173 14.4759 17.1229C14.4676 17.1339 14.4595 17.145 14.4519 17.1565C14.4476 17.1633 14.4437 17.1701 14.4396 17.1771C14.4332 17.188 14.4269 17.1991 14.4212 17.2104C14.4175 17.2178 14.4141 17.2252 14.4107 17.2329C14.4054 17.2444 14.4006 17.2561 14.3961 17.2678C14.3946 17.2719 14.3925 17.2758 14.391 17.28L13.2472 20.5202L12.4674 22.7295C12.4571 22.7589 12.4496 22.7887 12.4441 22.8188H10.4916C10.1674 22.8188 9.90447 23.0816 9.90447 23.4059C9.90447 23.7302 10.1674 23.993 10.4916 23.993H26.7505C27.0748 23.993 27.3376 23.7302 27.3376 23.4059C27.3376 23.0816 27.0748 22.8188 26.7505 22.8188H15.0854L18.6659 21.5549C18.6689 21.5538 18.6717 21.5523 18.6746 21.5512C18.6886 21.5461 18.7022 21.5403 18.7157 21.5341C18.7211 21.5316 18.7265 21.5293 18.7318 21.5267C18.7458 21.5197 18.7596 21.5119 18.7732 21.5037C18.7776 21.501 18.7821 21.4986 18.7864 21.4958C18.8006 21.4868 18.8143 21.4769 18.8279 21.4664C18.8312 21.4638 18.8347 21.4615 18.838 21.4589C18.8543 21.4458 18.8703 21.4316 18.8855 21.4165L30.9671 9.33496H36.0652V21.8776L27.667 30.2759C27.4377 30.5052 27.4377 30.8769 27.667 31.1062C27.6813 31.1205 27.6962 31.1339 27.7116 31.1465C27.8193 31.2342 27.9508 31.2781 28.0822 31.2781C28.2136 31.2781 28.3451 31.2342 28.4527 31.1465C28.4681 31.134 28.483 31.1205 28.4973 31.1062C28.4976 31.1059 28.4973 31.1062 28.4976 31.1059L38.826 20.7774V25.9573ZM17.3967 20.7576L15.715 21.3512L14.5945 20.2308L15.1882 18.549L17.3967 20.7576Z" fill="#E51D24"/>
</g>
<defs>
<clipPath id="clip0">
<rect width="40" height="40" fill="white"/>
</clipPath>
</defs>
</svg>
